<svg xmlns="http://www.w3.org/2000/svg" width="32" height="32" viewBox="0 0 32 32">
  <circle fill="#4A7C59" cx="16" cy="5" r="3"/>
  <circle fill="#4A7C59" cx="6" cy="14" r="3"/>
  <circle fill="#4A7C59" cx="26" cy="14" r="3"/>
  <path fill="#4A7C59" d="M16 9c-2.5 0-4.5 2-4.5 4.5V17h9v-3.5C20.5 11 18.5 9 16 9z"/>
  <path fill="#4A7C59" d="M6 18c-2 0-3.5 1.5-3.5 3.5V25h7v-3.5C9.5 19.5 8 18 6 18z"/>
  <path fill="#4A7C59" d="M26 18c-2 0-3.5 1.5-3.5 3.5V25h7v-3.5c0-2-1.5-3.5-3.5-3.5z"/>
  <rect fill="#4A7C59" x="9" y="18" width="3" height="2" rx="1"/>
  <rect fill="#4A7C59" x="20" y="18" width="3" height="2" rx="1"/>
  <path fill="#4A7C59" d="M10 25h12v3H10z"/>
</svg>
